<svg width="800" height="600" viewBox="0 0 800 600" xmlns="http://www.w3.org/2000/svg" role="img" aria-label="Abstract backend illustration">
  <defs>
    <linearGradient id="bg" x1="0%" y1="0%" x2="100%" y2="100%">
      <stop offset="0%" stop-color="#0f172a"/>
      <stop offset="100%" stop-color="#1e293b"/>
    </linearGradient>
    <linearGradient id="accent" x1="0%" y1="50%" x2="100%" y2="50%">
      <stop offset="0%" stop-color="#38bdf8"/>
      <stop offset="100%" stop-color="#a855f7"/>
    </linearGradient>
    <linearGradient id="accent-soft" x1="0%" y1="0%" x2="100%" y2="100%">
      <stop offset="0%" stop-color="rgba(56,189,248,0.25)"/>
      <stop offset="100%" stop-color="rgba(168,85,247,0.15)"/>
    </linearGradient>
  </defs>
  <rect width="800" height="600" fill="url(#bg)"/>
  <g opacity="0.2" stroke="#1f2937">
    <path d="M0 80h800M0 160h800M0 240h800M0 320h800M0 400h800M0 480h800M0 560h800"/>
    <path d="M133 0v600M266 0v600M399 0v600M532 0v600M665 0v600"/>
  </g>
  <g fill="none" stroke="url(#accent)" stroke-width="2">
    <rect x="220" y="150" width="360" height="220" rx="24"/>
    <rect x="260" y="190" width="280" height="70" rx="12"/>
    <rect x="260" y="280" width="200" height="36" rx="10"/>
    <rect x="480" y="280" width="60" height="36" rx="10"/>
  </g>
  <g opacity="0.4">
    <circle cx="220" cy="120" r="25" fill="url(#accent-soft)"/>
    <circle cx="600" cy="480" r="18" fill="url(#accent-soft)"/>
    <circle cx="150" cy="420" r="35" fill="url(#accent-soft)"/>
  </g>
  <g fill="none" stroke="url(#accent)" stroke-width="1.5" stroke-linecap="round">
    <path d="M160 420h480"/>
    <path d="M400 360v160"/>
    <path d="M300 360v80"/>
    <path d="M500 360v80"/>
  </g>
</svg>
